<?xml version="1.0" encoding="UTF-8" standalone="no"?>
<!DOCTYPE svg PUBLIC "-//W3C//DTD SVG 1.1//EN" "http://www.w3.org/Graphics/SVG/1.1/DTD/svg11.dtd">
<svg width="100%" height="100%" viewBox="0 0 253 113" version="1.1" xmlns="http://www.w3.org/2000/svg" xmlns:xlink="http://www.w3.org/1999/xlink" xml:space="preserve" xmlns:serif="http://www.serif.com/" style="fill-rule:evenodd;clip-rule:evenodd;stroke-linejoin:round;stroke-miterlimit:2;">
    <g transform="matrix(1,0,0,1,-296.538,-500.165)">
        <g>
            <g transform="matrix(0.994055,0,0,1.00074,4.10041,-3.10942)">
                <path d="M406.886,502.903L406.886,614.838L294.186,614.838L294.186,502.903L406.886,502.903ZM301.58,510.194L301.49,554.86L319.918,554.85L319.908,528.611L346.407,528.611L346.407,510.068L301.58,510.194ZM399.501,607.545L399.592,563.173L381.248,563.217L381.223,589.249L354.795,589.249L354.795,607.67L399.501,607.545ZM319.499,589.342C319.499,589.342 306.192,589.229 303.693,589.229C301.194,589.229 300.987,592.353 300.987,592.353L300.987,607.497C300.987,607.497 314.237,607.827 316.83,607.827C319.423,607.827 319.499,605.834 319.499,605.834L319.499,589.342ZM346.08,563.017L301.348,562.891L301.348,581.434L327.791,581.434L327.726,607.726L346.171,607.683L346.08,563.017ZM327.767,536.342L327.767,552.834C327.767,552.834 327.843,554.827 330.436,554.827C333.03,554.827 346.279,554.497 346.279,554.497L346.279,539.353C346.279,539.353 346.072,536.229 343.573,536.229C341.075,536.229 327.767,536.342 327.767,536.342ZM354.486,563.129L354.486,579.621C354.486,579.621 354.562,581.613 357.155,581.613C359.748,581.613 372.997,581.283 372.997,581.283L372.997,566.14C372.997,566.14 372.79,563.016 370.292,563.016C367.793,563.016 354.486,563.129 354.486,563.129ZM399.564,510.3C399.564,510.3 386.256,510.187 383.758,510.187C381.259,510.187 381.052,513.311 381.052,513.311L381.052,528.455C381.052,528.455 394.301,528.785 396.894,528.785C399.488,528.785 399.564,526.792 399.564,526.792L399.564,510.3ZM354.554,554.464L399.382,554.59L399.382,536.168L372.882,536.168L372.88,510.114L354.464,510.092L354.554,554.464Z" style="fill:rgb(22,22,22);"/>
            </g>
            <g transform="matrix(2.23182,0,0,2.2156,-364.331,-513.982)">
                <g transform="matrix(16.6667,0,0,16.6667,410.495,474.906)">
                </g>
                <text x="346.675px" y="474.906px" style="font-family:'FONTSPRINGDEMO-HalcyonBoldRegular', 'Halcyon', sans-serif;font-weight:900;font-size:16.667px;fill:rgb(22,22,22);">ORGANI</text>
            </g>
            <g transform="matrix(4.57973,0,0,5.07288,-1504.81,-2304.31)">
                <g transform="matrix(16.6667,0,0,16.6667,450.033,574.063)">
                </g>
                <text x="417.588px" y="574.063px" style="font-family:'FONTSPRINGDEMO-HalcyonRegular', 'FONTSPRING DEMO - Halcyon', sans-serif;font-weight:500;font-size:16.667px;fill:rgb(22,22,22);">ZEN</text>
            </g>
        </g>
    </g>
</svg>
